<svg xmlns="http://www.w3.org/2000/svg" width="28.125" height="32" viewBox="0 0 28.125 32">
  <path id="Trazado_1503" data-name="Trazado 1503" d="M54.749,16.429V13.438a9.7,9.7,0,0,0-6.875-9.271V2.813a2.813,2.813,0,0,0-5.625,0V4.167a9.7,9.7,0,0,0-6.875,9.271v2.991A14.721,14.721,0,0,1,31.26,26.664a.937.937,0,0,0,.677,1.586h8.532a4.688,4.688,0,0,0,9.186,0h8.532a.938.938,0,0,0,.677-1.586A14.721,14.721,0,0,1,54.749,16.429ZM44.124,2.813a.938.938,0,0,1,1.875,0V3.8c-.309-.03-.621-.046-.938-.046s-.629.016-.937.046Zm.938,27.313A2.817,2.817,0,0,1,42.41,28.25h5.3a2.817,2.817,0,0,1-2.651,1.875Zm-11.1-3.75a16.576,16.576,0,0,0,3.292-9.946V13.438a7.813,7.813,0,1,1,15.625,0v2.991a16.575,16.575,0,0,0,3.292,9.946Z" transform="translate(-30.999)" fill="#1f5a76"/>
</svg>
