<svg id="noun_Check_1905028" xmlns="http://www.w3.org/2000/svg" width="35.14" height="35.14" viewBox="0 0 35.14 35.14">
  <g id="Grupo_517" data-name="Grupo 517" transform="translate(0 0)">
    <path id="Trazado_1445" data-name="Trazado 1445" d="M21.32,3.75A17.57,17.57,0,1,0,38.89,21.32,17.59,17.59,0,0,0,21.32,3.75Zm9.739,13.99L19.838,28.961a1.849,1.849,0,0,1-1.3.538v.76l-.016-.76a1.844,1.844,0,0,1-1.3-.561l-5.661-5.868A1.835,1.835,0,0,1,14.2,20.522l4.364,4.523,9.9-9.9a1.835,1.835,0,1,1,2.595,2.6Z" transform="translate(-3.75 -3.75)" fill="#E1A327"/>
  </g>
</svg>
