<svg xmlns="http://www.w3.org/2000/svg" width="34.286" height="24" viewBox="0 0 34.286 24">
  <path id="fa-users" d="M29.143,42.286A4.286,4.286,0,1,0,24.857,38,4.285,4.285,0,0,0,29.143,42.286Zm0-6.857A2.571,2.571,0,1,1,26.571,38,2.572,2.572,0,0,1,29.143,35.429ZM17.143,44a6,6,0,1,0-6-6A6,6,0,0,0,17.143,44Zm0-10.286A4.286,4.286,0,1,1,12.857,38,4.291,4.291,0,0,1,17.143,33.714ZM30.214,44H28.071a3.876,3.876,0,0,0-2.2.691,7.261,7.261,0,0,1,1.361,1.2,2.131,2.131,0,0,1,.841-.177h2.143a2.475,2.475,0,0,1,2.357,2.571.857.857,0,1,0,1.714,0A4.188,4.188,0,0,0,30.214,44ZM5.143,42.286A4.286,4.286,0,1,0,.857,38,4.285,4.285,0,0,0,5.143,42.286Zm0-6.857A2.571,2.571,0,1,1,2.571,38,2.572,2.572,0,0,1,5.143,35.429Zm16.291,9.643c-1.789,0-2.234.643-4.291.643s-2.5-.643-4.291-.643a5.9,5.9,0,0,0-4.945,2.512,6.139,6.139,0,0,0-1.05,3.445v2.4A2.572,2.572,0,0,0,9.429,56H24.857a2.572,2.572,0,0,0,2.571-2.571v-2.4a6.139,6.139,0,0,0-1.05-3.445,5.9,5.9,0,0,0-4.945-2.513Zm4.28,8.357a.86.86,0,0,1-.857.857H9.429a.86.86,0,0,1-.857-.857v-2.4a4.451,4.451,0,0,1,.755-2.486,4.193,4.193,0,0,1,3.52-1.757c1.468,0,1.993.643,4.3.643s2.829-.643,4.291-.643a4.193,4.193,0,0,1,3.52,1.757,4.451,4.451,0,0,1,.755,2.486v2.4Zm-17.3-8.737A3.9,3.9,0,0,0,6.214,44H4.071A4.188,4.188,0,0,0,0,48.286a.857.857,0,1,0,1.714,0,2.475,2.475,0,0,1,2.357-2.571H6.214a2.131,2.131,0,0,1,.841.177,7.433,7.433,0,0,1,1.361-1.2Z" transform="translate(0 -32)" fill="#1f5a76"/>
</svg>
