<svg xmlns="http://www.w3.org/2000/svg" width="18.687" height="18.686" viewBox="0 0 18.687 18.686">
  <g id="settings" transform="translate(0 0)">
    <path id="Trazado_1511" data-name="Trazado 1511" d="M9.93,18.687H8.757a1.722,1.722,0,0,1-1.72-1.72v-.4a7.544,7.544,0,0,1-1.171-.486l-.281.281a1.72,1.72,0,0,1-2.433,0l-.829-.829a1.72,1.72,0,0,1,0-2.433l.281-.281a7.544,7.544,0,0,1-.486-1.171h-.4A1.722,1.722,0,0,1,0,9.93V8.757a1.722,1.722,0,0,1,1.72-1.72h.4A7.546,7.546,0,0,1,2.6,5.865l-.281-.281a1.72,1.72,0,0,1,0-2.433l.829-.829a1.72,1.72,0,0,1,2.433,0l.281.281a7.551,7.551,0,0,1,1.171-.486v-.4A1.722,1.722,0,0,1,8.757,0H9.93a1.722,1.722,0,0,1,1.72,1.72v.4a7.544,7.544,0,0,1,1.171.486l.281-.281a1.72,1.72,0,0,1,2.433,0l.829.829a1.72,1.72,0,0,1,0,2.433l-.281.281a7.545,7.545,0,0,1,.486,1.171h.4a1.722,1.722,0,0,1,1.72,1.72V9.93a1.722,1.722,0,0,1-1.72,1.72h-.4a7.546,7.546,0,0,1-.486,1.171l.281.281a1.72,1.72,0,0,1,0,2.433l-.829.829a1.72,1.72,0,0,1-2.433,0l-.281-.281a7.551,7.551,0,0,1-1.171.486v.4A1.722,1.722,0,0,1,9.93,18.687ZM6.048,14.934a6.453,6.453,0,0,0,1.673.694.547.547,0,0,1,.411.53v.808a.626.626,0,0,0,.625.625H9.93a.626.626,0,0,0,.625-.625v-.808a.547.547,0,0,1,.411-.53,6.453,6.453,0,0,0,1.673-.694.547.547,0,0,1,.666.084l.573.573a.625.625,0,0,0,.884,0l.829-.829a.625.625,0,0,0,0-.884l-.573-.573a.547.547,0,0,1-.084-.666,6.452,6.452,0,0,0,.694-1.673.547.547,0,0,1,.53-.411h.808a.626.626,0,0,0,.625-.625V8.757a.626.626,0,0,0-.625-.625h-.808a.547.547,0,0,1-.53-.411,6.453,6.453,0,0,0-.694-1.673.547.547,0,0,1,.084-.666l.573-.573a.625.625,0,0,0,0-.884L14.761,3.1a.625.625,0,0,0-.884,0l-.573.573a.547.547,0,0,1-.666.084,6.453,6.453,0,0,0-1.673-.694.547.547,0,0,1-.411-.53V1.72a.626.626,0,0,0-.625-.625H8.757a.626.626,0,0,0-.625.625v.808a.547.547,0,0,1-.411.53,6.453,6.453,0,0,0-1.673.694.548.548,0,0,1-.666-.084L4.81,3.1a.625.625,0,0,0-.884,0L3.1,3.925a.625.625,0,0,0,0,.884l.573.573a.547.547,0,0,1,.084.666,6.452,6.452,0,0,0-.694,1.673.547.547,0,0,1-.53.411H1.72a.626.626,0,0,0-.625.625V9.93a.626.626,0,0,0,.625.625h.808a.547.547,0,0,1,.53.411,6.453,6.453,0,0,0,.694,1.673.547.547,0,0,1-.084.666l-.573.573a.625.625,0,0,0,0,.884l.829.829a.625.625,0,0,0,.884,0l.573-.573a.55.55,0,0,1,.666-.084Z" fill="#1f5a76"/>
    <path id="Trazado_1512" data-name="Trazado 1512" d="M148.666,152.732a4.066,4.066,0,1,1,4.066-4.066A4.07,4.07,0,0,1,148.666,152.732Zm0-7.037a2.971,2.971,0,1,0,2.971,2.971A2.974,2.974,0,0,0,148.666,145.695Z" transform="translate(-139.323 -139.323)" fill="#1f5a76"/>
  </g>
</svg>
