<svg xmlns="http://www.w3.org/2000/svg" width="477.447" height="477.863" viewBox="0 0 477.447 477.863">
  <g id="home" transform="translate(-0.208 0)">
    <g id="Grupo_879" data-name="Grupo 879">
      <path id="Trazado_1581" data-name="Trazado 1581" d="M472.864,226.864l-34.133-34.133L251,5a17.065,17.065,0,0,0-24.132,0L39.132,192.73,5,226.864A17.066,17.066,0,0,0,29.131,251l5-5V460.8A17.067,17.067,0,0,0,51.2,477.863H153.6V290.13a17.067,17.067,0,0,1,17.067-17.067H307.2a17.067,17.067,0,0,1,17.067,17.067V477.863h102.4A17.067,17.067,0,0,0,443.733,460.8v-214.8l5,5a17.066,17.066,0,0,0,24.131-24.132Z" fill="#1f5a76"/>
    </g>
  </g>
</svg>
