<svg xmlns="http://www.w3.org/2000/svg" width="25" height="25" viewBox="0 0 25 25">
  <g id="noun_Information_565767" transform="translate(0)">
    <g id="Grupo_151" data-name="Grupo 151" transform="translate(0 0)">
      <path id="Trazado_1298" data-name="Trazado 1298" d="M-276.5,377A12.537,12.537,0,0,0-289,389.5,12.537,12.537,0,0,0-276.5,402,12.537,12.537,0,0,0-264,389.5,12.537,12.537,0,0,0-276.5,377Zm0,22.656A10.136,10.136,0,0,1-286.656,389.5,10.136,10.136,0,0,1-276.5,379.344,10.136,10.136,0,0,1-266.344,389.5,10.136,10.136,0,0,1-276.5,399.656Z" transform="translate(289 -377)" fill="#1f5a76"/>
      <ellipse id="Elipse_174" data-name="Elipse 174" cx="1.821" cy="1.686" rx="1.821" ry="1.686" transform="translate(10.679 6.179)" fill="#1f5a76"/>
      <path id="Trazado_1299" data-name="Trazado 1299" d="M-273.179,391A1.763,1.763,0,0,0-275,392.686v5.059a1.763,1.763,0,0,0,1.821,1.686,1.763,1.763,0,0,0,1.821-1.686v-5.059A1.763,1.763,0,0,0-273.179,391Z" transform="translate(285.679 -380.456)" fill="#1f5a76"/>
    </g>
  </g>
</svg>
