<svg id="instagram" xmlns="http://www.w3.org/2000/svg" width="45.436" height="45.436" viewBox="0 0 45.436 45.436">
  <path id="Trazado_1385" data-name="Trazado 1385" d="M215.7,211.348A4.348,4.348,0,1,1,211.348,207,4.348,4.348,0,0,1,215.7,211.348Zm0,0" transform="translate(-188.63 -188.63)" fill="#fff"/>
  <path id="Trazado_1386" data-name="Trazado 1386" d="M156.349,138.489a4.32,4.32,0,0,0-2.476-2.476,7.217,7.217,0,0,0-2.422-.449c-1.376-.063-1.788-.076-5.272-.076s-3.9.013-5.272.076a7.222,7.222,0,0,0-2.422.449,4.322,4.322,0,0,0-2.476,2.476,7.22,7.22,0,0,0-.449,2.422c-.063,1.376-.076,1.788-.076,5.272s.014,3.9.076,5.272a7.218,7.218,0,0,0,.449,2.422,4.32,4.32,0,0,0,2.476,2.476,7.208,7.208,0,0,0,2.422.449c1.376.063,1.788.076,5.271.076s3.9-.013,5.272-.076a7.208,7.208,0,0,0,2.422-.449,4.32,4.32,0,0,0,2.476-2.476,7.224,7.224,0,0,0,.449-2.422c.063-1.376.076-1.788.076-5.272s-.013-3.9-.076-5.272A7.208,7.208,0,0,0,156.349,138.489Zm-10.169,14.392a6.7,6.7,0,1,1,6.7-6.7A6.7,6.7,0,0,1,146.179,152.881Zm6.964-12.1a1.565,1.565,0,1,1,1.565-1.565A1.566,1.566,0,0,1,153.143,140.785Zm0,0" transform="translate(-123.461 -123.465)" fill="#fff"/>
  <path id="Trazado_1387" data-name="Trazado 1387" d="M22.718,0A22.718,22.718,0,1,0,45.436,22.718,22.721,22.721,0,0,0,22.718,0ZM35.685,28.1a9.571,9.571,0,0,1-.606,3.167,6.67,6.67,0,0,1-3.815,3.815,9.578,9.578,0,0,1-3.166.606c-1.391.063-1.836.079-5.378.079s-3.987-.015-5.379-.079a9.578,9.578,0,0,1-3.166-.606,6.67,6.67,0,0,1-3.815-3.815A9.569,9.569,0,0,1,9.752,28.1c-.064-1.391-.079-1.836-.079-5.379s.015-3.987.079-5.378a9.572,9.572,0,0,1,.606-3.167,6.675,6.675,0,0,1,3.816-3.815,9.58,9.58,0,0,1,3.167-.606c1.391-.063,1.836-.079,5.378-.079s3.987.015,5.378.079a9.582,9.582,0,0,1,3.167.606,6.672,6.672,0,0,1,3.815,3.816,9.57,9.57,0,0,1,.607,3.167c.063,1.391.078,1.836.078,5.378S35.748,26.705,35.685,28.1Zm0,0" fill="#fff"/>
</svg>
