<svg id="Grupo_434" data-name="Grupo 434" xmlns="http://www.w3.org/2000/svg" width="267" height="74.458" viewBox="0 0 267 74.458">
  <path id="Trazado_8" data-name="Trazado 8" d="M161.139,147.3l-14.612-8.444a3.982,3.982,0,0,0-6.106-3.518l-8.031-4.636a4.136,4.136,0,0,0-4.1,0L99.648,147.241a4.084,4.084,0,0,0-2.028,3.539v33.2a4.117,4.117,0,0,0,2.028,3.56l28.645,16.537a4.135,4.135,0,0,0,4.1,0l28.645-16.537A4.128,4.128,0,0,0,163.085,184l.1-33.136A4.111,4.111,0,0,0,161.139,147.3Zm-17.944-10.369a2.071,2.071,0,0,1,.5.29,2.2,2.2,0,0,1,.414.352,1.968,1.968,0,0,1-.414,2.711,2.023,2.023,0,0,1-.952.331,1.945,1.945,0,0,1-1.759-.745,1.462,1.462,0,0,1-.165-.372,1.76,1.76,0,0,1-.186-1.076,1.927,1.927,0,0,1,1.9-1.635A2.544,2.544,0,0,1,143.195,136.934ZM129.059,169.7v29.99c-.331.207-.414.248-.766.435l-25.23-14.571a3.061,3.061,0,0,1-1.966-2.918c-.021-.207-.083-29.887-.083-29.887.269-.145.331-.186.6-.331l25.52,14.757s.186.1.434.248A2.387,2.387,0,0,1,129.059,169.7Zm.766-4.346-26.8-15.481v-.642l25.126-14.509a4.414,4.414,0,0,1,4.408,0l6.023,3.5a3.883,3.883,0,0,0,.745,2.877,3.99,3.99,0,0,0,3.229,1.635,3.9,3.9,0,0,0,2.36-.786c.021,0,.041-.021.062-.041l12.294,7.1v1.138l-26.306,15.212A1.228,1.228,0,0,1,129.825,165.351Zm29.866,16.682a4.07,4.07,0,0,1-2.049,3.519L148,191.119v-8.4a.382.382,0,0,0-.559-.331l-4.7,2.38a.77.77,0,0,0-.414.683v8.962l-9.935,5.712c-.124-.062-.145-.083-.269-.145V169.015a1.642,1.642,0,0,1,.828-1.428l26.741-15.461.083.042Z" transform="translate(-97.62 -130.161)" fill="#fff"/>
  <g id="Grupo_3" data-name="Grupo 3" transform="translate(75.94 2.449)">
    <path id="Trazado_9" data-name="Trazado 9" d="M378.2,213.516V187.758h-25.88l-.665,3.991,3.991.484-7.5,20.135h-.241l-7.438-20.135,4.052-.484v-3.991h-14.27l-.786,3.991,2.54.544c.725.181,1.027.3,1.269,1.028l9.977,25.7H351.3l9.916-25.878c.3-.786.726-.907,1.511-1.028l3.9-.334,3.837,1c.6.181.786.6.786,1.27v19.47c0,.907-.121,1.088-.968,1.209l-3.627.484v3.809h16.083v-3.87l-3.568-.424C378.263,214.6,378.2,214.483,378.2,213.516Z" transform="translate(-329.467 -171.342)" fill="#fff"/>
    <path id="Trazado_10" data-name="Trazado 10" d="M452.862,149.671c3.748,0,6.076-2.329,6.076-6.077,0-3.673-2.328-5.955-6.076-5.955s-6.077,2.282-6.077,5.955C446.785,147.342,449.114,149.671,452.862,149.671Zm0-8.948c2.041,0,2.992.913,2.992,2.872,0,2.014-.979,2.993-2.992,2.993-2.042,0-2.993-.951-2.993-2.993C449.869,141.608,450.792,140.723,452.862,140.723Z" transform="translate(-408.358 -137.639)" fill="#e1a327"/>
    <path id="Trazado_11" data-name="Trazado 11" d="M511.223,183.972V143.824H500.642l-.6,3.87,3.446,1.149c.6.181.786.6.786,1.27v33.86c0,.907-.121,1.088-.968,1.209l-3.446.484v3.809h15.72V185.6l-3.386-.424C511.284,185.061,511.223,184.939,511.223,183.972Z" transform="translate(-444.046 -141.798)" fill="#fff"/>
    <path id="Trazado_12" data-name="Trazado 12" d="M574.146,212.939c-5.26,0-9.069-2.721-9.069-10.944,0-8.042,3.869-10.944,8.526-10.944a11.72,11.72,0,0,1,3.748.544.889.889,0,0,1,.665.846l.726,3.991,5.018.242v-8.586a21.466,21.466,0,0,0-9.855-2.177c-9.372,0-16.084,5.261-16.084,16.628,0,9.251,4.6,15.962,15.177,15.962a21.818,21.818,0,0,0,10.823-2.72l-1.995-4.717A16.709,16.709,0,0,1,574.146,212.939Z" transform="translate(-483.025 -170.1)" fill="#fff"/>
    <path id="Trazado_13" data-name="Trazado 13" d="M663.384,185.911c-10.642,0-15.66,6.531-15.66,16.568,0,9.251,3.991,16.023,15.056,16.023,10.642,0,15.358-6.651,15.358-16.809C678.138,192.5,674.026,185.911,663.384,185.911Zm-.423,27.451c-5.2,0-7.982-3.507-7.982-11.247s3.083-10.944,8.223-10.944,7.739,3.2,7.739,10.883C670.942,209.976,668.1,213.362,662.962,213.362Z" transform="translate(-543.481 -170.1)" fill="#fff"/>
    <path id="Trazado_14" data-name="Trazado 14" d="M800.955,213.483c-.906-.121-.967-.242-.967-1.209V196.251c0-6.288-2.176-10.34-8.888-10.34-4.413,0-7.618,1.754-10.521,3.628-1.572-2.781-4.292-3.628-7.2-3.628-4.112,0-7.256,1.693-10.34,4.052l-.242-.061-.484-3.386H753.37l-.6,3.87,3.325,1.149c.6.181.786.6.786,1.27v19.47c0,.907-.121,1.088-.968,1.209l-2.9.484v3.809h14.753v-3.87l-2.963-.424c-.906-.121-.967-.242-.967-1.209V194.8a12.511,12.511,0,0,1,7.5-3.084c3.567,0,3.749,3.2,3.749,6.712v13.907c0,.726-.06,1.088-.968,1.21l-3.2.423v3.809h14.874v-3.87L783,213.483c-.906-.121-.967-.242-.967-1.209V197.581a19.806,19.806,0,0,0-.242-3.386,14.676,14.676,0,0,1,7.437-2.419c3.386,0,3.808,2.9,3.808,6.348v14.209c0,.726-.12,1.088-.967,1.21l-3.144.423v3.809h15.358v-3.87Z" transform="translate(-614.118 -170.1)" fill="#fff"/>
    <text id="inmuebles" transform="translate(110.06 62.551)" fill="#e1a327" font-size="15" font-family="Arial-BoldMT, Arial" font-weight="700" letter-spacing="0.05em"><tspan x="0" y="0">inmuebles</tspan></text>
  </g>
</svg>
