<svg id="Grupo_545" data-name="Grupo 545" xmlns="http://www.w3.org/2000/svg" width="160" height="44.769" viewBox="0 0 160 44.769">
  <path id="Trazado_8" data-name="Trazado 8" d="M135.812,140.468l-8.786-5.077a2.394,2.394,0,0,0-3.671-2.116l-4.829-2.788a2.487,2.487,0,0,0-2.464,0l-17.223,9.943a2.456,2.456,0,0,0-1.219,2.128V162.52a2.476,2.476,0,0,0,1.219,2.141l17.223,9.943a2.486,2.486,0,0,0,2.464,0l17.223-9.943a2.482,2.482,0,0,0,1.232-2.128l.062-19.924A2.472,2.472,0,0,0,135.812,140.468Zm-10.789-6.235a1.246,1.246,0,0,1,.3.174,1.323,1.323,0,0,1,.249.212,1.183,1.183,0,0,1-.249,1.63,1.217,1.217,0,0,1-.572.2,1.169,1.169,0,0,1-1.058-.448.879.879,0,0,1-.1-.224,1.058,1.058,0,0,1-.112-.647,1.158,1.158,0,0,1,1.145-.983A1.53,1.53,0,0,1,125.023,134.233Zm-8.5,19.7v18.032c-.2.124-.249.149-.46.261l-15.17-8.761a1.84,1.84,0,0,1-1.182-1.755c-.012-.124-.05-17.97-.05-17.97.162-.087.2-.112.361-.2l15.344,8.873s.112.062.261.149A1.435,1.435,0,0,1,116.523,153.933Zm.46-2.613-16.116-9.308v-.386l15.108-8.724a2.654,2.654,0,0,1,2.651,0l3.621,2.1a2.335,2.335,0,0,0,.448,1.73,2.4,2.4,0,0,0,1.941.983,2.342,2.342,0,0,0,1.419-.473c.012,0,.025-.012.037-.025l7.392,4.269v.684l-15.817,9.147A.739.739,0,0,1,116.984,151.32Zm17.958,10.03a2.447,2.447,0,0,1-1.232,2.116l-5.8,3.348v-5.053a.23.23,0,0,0-.336-.2l-2.825,1.431a.463.463,0,0,0-.249.411v5.389l-5.973,3.435c-.075-.037-.087-.05-.162-.087V153.522a.987.987,0,0,1,.5-.859l16.078-9.3.05.025Z" transform="translate(-97.62 -130.161)" fill="#1f5a76"/>
  <g id="Grupo_3" data-name="Grupo 3" transform="translate(45.66 1.473)">
    <path id="Trazado_9" data-name="Trazado 9" d="M358.77,203.246V187.758H343.209l-.4,2.4,2.4.291L340.7,202.555h-.145l-4.472-12.106,2.436-.291v-2.4h-8.58l-.473,2.4,1.527.327c.436.109.618.182.763.618l6,15.451h4.836l5.962-15.56c.182-.473.436-.546.909-.618l2.347-.2,2.307.6c.364.109.473.364.473.764v11.707c0,.545-.073.654-.582.727l-2.181.291v2.29h9.67v-2.327l-2.145-.255C358.807,203.9,358.77,203.827,358.77,203.246Z" transform="translate(-329.467 -177.887)" fill="#1f5a76"/>
    <path id="Trazado_10" data-name="Trazado 10" d="M450.439,144.874a3.617,3.617,0,1,0-3.654-3.654A3.39,3.39,0,0,0,450.439,144.874Zm0-5.38c1.227,0,1.8.549,1.8,1.727a1.8,1.8,0,1,1-3.6,0C448.639,140.026,449.194,139.493,450.439,139.493Z" transform="translate(-423.68 -137.639)" fill="#e1a327"/>
    <path id="Trazado_11" data-name="Trazado 11" d="M506.691,167.964v-24.14h-6.362l-.364,2.327,2.072.691c.364.109.473.364.473.764v20.359c0,.546-.073.654-.582.727l-2.072.291v2.29h9.452v-2.327l-2.036-.255C506.727,168.618,506.691,168.546,506.691,167.964Z" transform="translate(-466.299 -142.606)" fill="#1f5a76"/>
    <path id="Trazado_12" data-name="Trazado 12" d="M567.637,202.162c-3.163,0-5.453-1.636-5.453-6.58,0-4.835,2.327-6.58,5.126-6.58a7.045,7.045,0,0,1,2.254.327.535.535,0,0,1,.4.509l.436,2.4,3.017.145V187.22a12.906,12.906,0,0,0-5.926-1.309c-5.635,0-9.671,3.163-9.671,10,0,5.562,2.763,9.6,9.125,9.6a13.119,13.119,0,0,0,6.508-1.636l-1.2-2.836A10.047,10.047,0,0,1,567.637,202.162Z" transform="translate(-512.849 -176.404)" fill="#1f5a76"/>
    <path id="Trazado_13" data-name="Trazado 13" d="M657.14,185.911c-6.4,0-9.416,3.927-9.416,9.962,0,5.562,2.4,9.634,9.053,9.634,6.4,0,9.234-4,9.234-10.107C666.011,189.874,663.538,185.911,657.14,185.911Zm-.254,16.506c-3.127,0-4.8-2.109-4.8-6.762s1.854-6.58,4.944-6.58,4.653,1.927,4.653,6.544C661.684,200.381,659.976,202.417,656.886,202.417Z" transform="translate(-585.046 -176.404)" fill="#1f5a76"/>
    <path id="Trazado_14" data-name="Trazado 14" d="M781.741,202.489c-.545-.072-.582-.145-.582-.727v-9.634c0-3.781-1.309-6.217-5.344-6.217a11.183,11.183,0,0,0-6.326,2.182,4.57,4.57,0,0,0-4.326-2.182,9.9,9.9,0,0,0-6.217,2.436l-.145-.036-.291-2.036h-5.381l-.363,2.327,2,.691c.364.109.473.364.473.764v11.707c0,.546-.073.654-.582.727l-1.745.291v2.29h8.871v-2.327L760,202.489c-.545-.072-.582-.145-.582-.727V191.256a7.522,7.522,0,0,1,4.508-1.854c2.145,0,2.254,1.927,2.254,4.036V201.8c0,.436-.036.654-.582.727l-1.927.254v2.29h8.943v-2.327l-1.672-.255c-.545-.072-.582-.145-.582-.727v-8.834a11.916,11.916,0,0,0-.145-2.036,8.824,8.824,0,0,1,4.472-1.454c2.036,0,2.29,1.745,2.29,3.817V201.8c0,.436-.072.654-.581.727l-1.89.254v2.29h9.234v-2.327Z" transform="translate(-669.401 -176.404)" fill="#1f5a76"/>
    <text id="inmuebles" transform="translate(66.176 36.395)" fill="#e1a327" font-size="8" font-family="Helvetica-Bold, Helvetica" font-weight="700" letter-spacing="0.05em"><tspan x="0" y="0">inmuebles</tspan></text>
  </g>
</svg>
