<svg xmlns="http://www.w3.org/2000/svg" width="33.013" height="33.013" viewBox="0 0 33.013 33.013">
  <g id="noun_password_2089991" transform="translate(0 0)">
    <g id="Grupo_128" data-name="Grupo 128" transform="translate(0 0)">
      <path id="Trazado_1288" data-name="Trazado 1288" d="M245.152,268.6A1.155,1.155,0,0,0,244,269.752v1.411a1.152,1.152,0,1,0,2.3,0v-1.411A1.149,1.149,0,0,0,245.152,268.6Z" transform="translate(-228.645 -250.884)" fill="#1f5a76"/>
      <path id="Trazado_1289" data-name="Trazado 1289" d="M200.183,170.7v-2.217a4.482,4.482,0,1,0-8.963,0V170.7a6.4,6.4,0,1,0,8.963,0Zm-6.66-2.217a2.178,2.178,0,1,1,4.357,0v.758a6.374,6.374,0,0,0-4.357,0Zm2.178,10.873a4.1,4.1,0,1,1,4.1-4.1A4.1,4.1,0,0,1,195.7,179.355Z" transform="translate(-179.195 -156.322)" fill="#1f5a76"/>
      <path id="Trazado_1290" data-name="Trazado 1290" d="M100.507,84a16.507,16.507,0,1,0,16.507,16.507A16.53,16.53,0,0,0,100.507,84Zm0,30.71a14.2,14.2,0,1,1,14.2-14.2A14.22,14.22,0,0,1,100.507,114.71Z" transform="translate(-84 -84)" fill="#1f5a76"/>
    </g>
  </g>
</svg>
