<svg xmlns="http://www.w3.org/2000/svg" width="27.799" height="27.799" viewBox="0 0 27.799 27.799">
  <g id="telefono" transform="translate(0 0)">
    <path id="Trazado_1502" data-name="Trazado 1502" d="M19.98,27.8a7.745,7.745,0,0,1-2.657-.475A28.335,28.335,0,0,1,7.034,20.766,28.333,28.333,0,0,1,.475,10.477,7.689,7.689,0,0,1,.083,6.7,7.885,7.885,0,0,1,4.135.926,7.741,7.741,0,0,1,7.842,0a.869.869,0,0,1,.849.687L10.055,7.05a.869.869,0,0,1-.235.8l-2.33,2.33A22.866,22.866,0,0,0,17.624,20.31l2.33-2.33a.869.869,0,0,1,.8-.235l6.363,1.364a.869.869,0,0,1,.687.849,7.741,7.741,0,0,1-.926,3.706A7.885,7.885,0,0,1,21.1,27.717,7.728,7.728,0,0,1,19.98,27.8ZM7.148,1.775A6.087,6.087,0,0,0,2.108,9.884,26.349,26.349,0,0,0,17.916,25.692a6.087,6.087,0,0,0,8.109-5.039l-5.176-1.109-2.433,2.433a.869.869,0,0,1-.984.172,24.6,24.6,0,0,1-11.78-11.78.869.869,0,0,1,.172-.984L8.257,6.952Z" transform="translate(0 0)" fill="#1f5a76"/>
  </g>
</svg>
