<svg id="phone-call" xmlns="http://www.w3.org/2000/svg" width="405.333" height="405.333" viewBox="0 0 405.333 405.333">
  <g id="Grupo_863" data-name="Grupo 863">
    <path id="Trazado_1579" data-name="Trazado 1579" d="M373.333,266.88a231.729,231.729,0,0,1-72.7-11.563c-11.328-3.9-24.192-.9-31.637,6.7l-46.016,34.752c-52.8-28.181-86.592-61.952-114.389-114.368L142.4,137.472a32.288,32.288,0,0,0,7.915-32.64A231.636,231.636,0,0,1,138.667,32a32.039,32.039,0,0,0-32-32H32A32.039,32.039,0,0,0,0,32C0,237.845,167.488,405.333,373.333,405.333a32.039,32.039,0,0,0,32-32V298.88A32.039,32.039,0,0,0,373.333,266.88Z" fill="#1f5a76"/>
  </g>
</svg>
