<svg xmlns="http://www.w3.org/2000/svg" width="511.994" height="503" viewBox="0 0 511.994 503">
  <g id="seller" transform="translate(-0.003 -9)">
    <g id="Grupo_827" data-name="Grupo 827">
      <g id="Grupo_826" data-name="Grupo 826">
        <path id="Trazado_1572" data-name="Trazado 1572" d="M501.28,209.57l-179.2-128a25.6,25.6,0,0,0-29.764,0L180.555,161.4a51.153,51.153,0,0,1,17.8,18.748L307.2,102.4l179.2,128H435.2V460.8H181.4l-2.031,25.6H435.2a25.6,25.6,0,0,0,25.6-25.6V256h25.6a25.6,25.6,0,0,0,14.882-46.43Z" fill="#1f5a76"/>
      </g>
    </g>
    <g id="Grupo_829" data-name="Grupo 829">
      <g id="Grupo_828" data-name="Grupo 828">
        <path id="Trazado_1573" data-name="Trazado 1573" d="M204.38,341.018l-25.6-140.8A25.593,25.593,0,0,0,153.6,179.2H51.2a25.592,25.592,0,0,0-25.182,21.026l-25.6,140.8A25.587,25.587,0,0,0,25.6,371.2H41.956L51.283,488.43A25.6,25.6,0,0,0,76.8,512H128a25.6,25.6,0,0,0,25.523-23.569L162.84,371.2H179.2a25.6,25.6,0,0,0,25.182-30.182ZM139.194,345.6,128,486.4H76.8L65.6,345.6h-40L51.2,204.8H89.6v77.875a12.8,12.8,0,0,0,25.6,0V204.8h38.4l25.6,140.8Z" fill="#1f5a76"/>
      </g>
    </g>
    <g id="Grupo_831" data-name="Grupo 831" transform="translate(0 9)">
      <g id="Grupo_830" data-name="Grupo 830">
        <path id="Trazado_1574" data-name="Trazado 1574" d="M102.4,0a76.8,76.8,0,1,0,76.8,76.8A76.894,76.894,0,0,0,102.4,0Zm0,128a51.2,51.2,0,1,1,51.2-51.2A51.2,51.2,0,0,1,102.4,128Z" fill="#1f5a76"/>
      </g>
    </g>
  </g>
</svg>
