<svg xmlns="http://www.w3.org/2000/svg" width="21.887" height="26.938" viewBox="0 0 21.887 26.938">
  <g id="trash_1_" data-name="trash(1)" transform="translate(0)">
    <path id="Trazado_449" data-name="Trazado 449" d="M67.783,3.367h-4.63V2.525A2.528,2.528,0,0,0,60.627,0H57.26a2.528,2.528,0,0,0-2.525,2.525v.842H50.1a2.107,2.107,0,0,0-2.1,2.1V8.418a.842.842,0,0,0,.842.842h.46l.727,15.273a2.522,2.522,0,0,0,2.523,2.405H65.336a2.522,2.522,0,0,0,2.523-2.405L68.585,9.26h.46a.842.842,0,0,0,.842-.842V5.472A2.107,2.107,0,0,0,67.783,3.367ZM56.418,2.525a.843.843,0,0,1,.842-.842h3.367a.843.843,0,0,1,.842.842v.842H56.418ZM49.684,5.472a.421.421,0,0,1,.421-.421H67.783a.421.421,0,0,1,.421.421v2.1H49.684ZM66.176,24.452a.841.841,0,0,1-.841.8H52.552a.841.841,0,0,1-.841-.8L50.987,9.26H66.9Z" transform="translate(-48)" fill="#848080"/>
    <path id="Trazado_450" data-name="Trazado 450" d="M240.842,220.627a.842.842,0,0,0,.842-.842V208.842a.842.842,0,0,0-1.684,0v10.944A.842.842,0,0,0,240.842,220.627Z" transform="translate(-229.898 -197.057)" fill="#848080"/>
    <path id="Trazado_451" data-name="Trazado 451" d="M320.842,220.627a.842.842,0,0,0,.842-.842V208.842a.842.842,0,0,0-1.684,0v10.944A.842.842,0,0,0,320.842,220.627Z" transform="translate(-305.689 -197.057)" fill="#848080"/>
    <path id="Trazado_452" data-name="Trazado 452" d="M160.842,220.627a.842.842,0,0,0,.842-.842V208.842a.842.842,0,0,0-1.684,0v10.944A.842.842,0,0,0,160.842,220.627Z" transform="translate(-154.107 -197.057)" fill="#848080"/>
  </g>
</svg>
