<svg xmlns="http://www.w3.org/2000/svg" width="33.989" height="33.989" viewBox="0 0 33.989 33.989">
  <g id="noun_User_2362315" transform="translate(0 0)">
    <g id="Grupo_119" data-name="Grupo 119" transform="translate(0 0)">
      <path fill="#1F5A76" id="Trazado_1286" data-name="Trazado 1286" d="M106.939,64a6.867,6.867,0,0,1,6.838,6.939,6.782,6.782,0,0,1-6.838,6.838A6.867,6.867,0,0,1,100,70.939,6.953,6.953,0,0,1,106.939,64Zm0,2.011a4.935,4.935,0,0,0-4.927,4.927,4.85,4.85,0,0,0,4.927,4.827,4.765,4.765,0,0,0,4.827-4.827A4.85,4.85,0,0,0,106.939,66.011Z" transform="translate(-89.944 -57.564)"/>
      <path fill="#1F5A76" id="Trazado_1287" data-name="Trazado 1287" d="M16.995,0A16.995,16.995,0,1,1,0,16.995,17.038,17.038,0,0,1,16.995,0ZM12.268,21.319H21.62a6.683,6.683,0,0,1,6.536,5.631A14.972,14.972,0,1,0,2.011,16.995,14.613,14.613,0,0,0,5.832,26.95,6.5,6.5,0,0,1,12.268,21.319ZM26.146,28.76v-.905A4.506,4.506,0,0,0,21.62,23.33H12.268a4.571,4.571,0,0,0-4.525,4.525v.905a14.967,14.967,0,0,0,9.252,3.218A14.682,14.682,0,0,0,26.146,28.76Z"/>
    </g>
  </g>
</svg>
