<svg xmlns="http://www.w3.org/2000/svg" width="639.963" height="511.975" viewBox="0 0 639.963 511.975">
  <path id="user-tag-solid" d="M630.6,364.9l-90.3-90.2A64.022,64.022,0,0,0,495,256H415.7a31.966,31.966,0,0,0-32,32v79.2a63.79,63.79,0,0,0,18.7,45.2l90.3,90.2a32.049,32.049,0,0,0,45.3,0l92.5-92.5a31.838,31.838,0,0,0,.1-45.2Zm-182.8-21a24,24,0,1,1,24-24A23.942,23.942,0,0,1,447.8,343.9ZM224,255.9A127.95,127.95,0,1,0,96,128,127.99,127.99,0,0,0,224,255.9ZM351.8,367.1V294c-12.2-3.6-24.9-6.2-38.2-6.2H296.9a174.075,174.075,0,0,1-145.8,0H134.4A134.584,134.584,0,0,0,0,422.3v41.6a48.012,48.012,0,0,0,48,48H400A47.784,47.784,0,0,0,437.9,493l-58-58a95.375,95.375,0,0,1-28.1-67.9Z" fill="#1f5a76"/>
</svg>
